# xmcd
#
# Track frame offsets:
#	150
#	12402
#	32745
#	49925
#	65085
#	79025
#	99860
#	115542
#	127332
#	141532
#
# Disc length: 2114 seconds
#
# Revision: 0
# Processed by: cddbd v1.4PL0 Copyright (c) Steve Scherf et al.
# Submitted via: dBpowerAMP V4.0
#
DISCID=8b08400a
DTITLE=Kip Sonnier - The Wait
DYEAR=1900
DGENRE=Country
TTITLE0=The Wait
TTITLE1=Losing You
TTITLE2=That's All She Wrote
TTITLE3=Not Through Breakin' My Heart
TTITLE4=Gone Out of My Mind
TTITLE5=Living on the Other Side of Love
TTITLE6=Real Love
TTITLE7=Homemade Memories
TTITLE8=Holding My Own
TTITLE9=Moon Beam
EXTD=Local Lafayette, Louisiana Artist
EXTT0=
EXTT1=
EXTT2=
EXTT3=
EXTT4=
EXTT5=
EXTT6=
EXTT7=
EXTT8=
EXTT9=
PLAYORDER=
